<svg xmlns="http://www.w3.org/2000/svg" xmlns:xlink="http://www.w3.org/1999/xlink" width="500" zoomAndPan="magnify" viewBox="0 0 375 374.999991" height="500" preserveAspectRatio="xMidYMid meet" version="1.2"><defs><clipPath id="d1080dc818"><path d="M 184 18.042969 L 260 18.042969 L 260 56 L 184 56 Z M 184 18.042969 "/></clipPath></defs><g id="5f63da4bf2"><rect x="0" width="375" y="0" height="374.999991" style="fill:#ff6600;fill-opacity:1;stroke:none;"/><path style=" stroke:none;fill-rule:nonzero;fill:#ffffff;fill-opacity:1;" d="M 245.949219 63.769531 C 245.917969 64.707031 245.839844 65.640625 245.71875 66.570312 C 245.59375 67.503906 245.429688 68.425781 245.21875 69.339844 C 245.007812 70.253906 244.75 71.15625 244.453125 72.046875 C 244.15625 72.933594 243.816406 73.808594 243.433594 74.664062 C 243.054688 75.523438 242.632812 76.359375 242.167969 77.175781 C 241.707031 77.992188 241.207031 78.785156 240.667969 79.554688 C 240.132812 80.324219 239.558594 81.0625 238.949219 81.777344 C 238.339844 82.492188 237.695312 83.175781 237.023438 83.824219 C 236.347656 84.476562 235.640625 85.097656 234.90625 85.679688 C 234.171875 86.265625 233.414062 86.8125 232.625 87.324219 C 231.839844 87.832031 231.03125 88.304688 230.199219 88.738281 C 229.363281 89.171875 228.515625 89.566406 227.644531 89.917969 C 226.773438 90.269531 225.890625 90.578125 224.988281 90.84375 C 224.089844 91.109375 223.179688 91.332031 222.257812 91.511719 C 221.335938 91.691406 220.410156 91.824219 219.476562 91.914062 C 218.542969 92.003906 217.605469 92.050781 216.667969 92.050781 C 215.730469 92.050781 214.792969 92.003906 213.859375 91.914062 C 212.925781 91.824219 211.996094 91.691406 211.074219 91.511719 C 210.15625 91.332031 209.246094 91.109375 208.34375 90.84375 C 207.445312 90.578125 206.558594 90.269531 205.691406 89.917969 C 204.820312 89.566406 203.96875 89.171875 203.136719 88.738281 C 202.304688 88.304688 201.496094 87.832031 200.707031 87.324219 C 199.921875 86.8125 199.160156 86.265625 198.425781 85.679688 C 197.691406 85.097656 196.988281 84.476562 196.3125 83.824219 C 195.636719 83.175781 194.996094 82.492188 194.386719 81.777344 C 193.777344 81.0625 193.203125 80.324219 192.664062 79.554688 C 192.125 78.785156 191.625 77.992188 191.164062 77.175781 C 190.703125 76.359375 190.28125 75.523438 189.898438 74.664062 C 189.519531 73.808594 189.179688 72.933594 188.878906 72.046875 C 188.582031 71.15625 188.328125 70.253906 188.117188 69.339844 C 187.90625 68.425781 187.738281 67.503906 187.617188 66.570312 C 187.496094 65.640625 187.417969 64.707031 187.382812 63.769531 C 187.382812 62.738281 187.382812 61.707031 187.382812 60.710938 L 243.996094 53.601562 C 245.253906 56.875 245.90625 60.261719 245.949219 63.769531 Z M 245.949219 63.769531 "/><g clip-rule="nonzero" clip-path="url(#d1080dc818)"><path style=" stroke:none;fill-rule:nonzero;fill:#ffffff;fill-opacity:1;" d="M 185.039062 51.539062 C 184.933594 50.605469 184.871094 49.667969 184.859375 48.726562 C 184.84375 47.789062 184.871094 46.847656 184.949219 45.914062 C 185.023438 44.976562 185.144531 44.042969 185.308594 43.121094 C 185.472656 42.195312 185.683594 41.277344 185.933594 40.375 C 186.1875 39.46875 186.484375 38.578125 186.824219 37.699219 C 187.160156 36.824219 187.542969 35.964844 187.964844 35.125 C 188.382812 34.285156 188.84375 33.46875 189.34375 32.671875 C 189.84375 31.875 190.382812 31.105469 190.957031 30.363281 C 191.53125 29.617188 192.140625 28.902344 192.78125 28.21875 C 193.425781 27.53125 194.097656 26.878906 194.804688 26.257812 C 195.511719 25.636719 196.246094 25.050781 197.007812 24.503906 C 197.769531 23.953125 198.554688 23.441406 199.367188 22.964844 C 200.179688 22.492188 201.011719 22.058594 201.863281 21.664062 C 202.71875 21.269531 203.585938 20.914062 204.472656 20.605469 C 205.359375 20.296875 206.261719 20.027344 207.175781 19.804688 C 208.085938 19.578125 209.007812 19.402344 209.9375 19.265625 C 210.867188 19.128906 211.804688 19.039062 212.742188 18.996094 C 213.679688 18.949219 214.617188 18.949219 215.558594 18.992188 C 216.496094 19.039062 217.429688 19.128906 218.359375 19.265625 C 219.292969 19.398438 220.210938 19.578125 221.125 19.800781 C 222.039062 20.023438 222.9375 20.292969 223.824219 20.601562 C 224.714844 20.914062 225.582031 21.265625 226.4375 21.660156 C 227.289062 22.054688 228.121094 22.488281 228.933594 22.960938 C 229.746094 23.433594 230.53125 23.945312 231.292969 24.496094 C 232.058594 25.046875 232.789062 25.632812 233.496094 26.253906 C 234.203125 26.871094 234.878906 27.523438 235.519531 28.210938 C 236.164062 28.894531 236.773438 29.609375 237.347656 30.355469 C 237.921875 31.097656 238.457031 31.867188 238.957031 32.664062 C 239.460938 33.460938 239.921875 34.277344 240.339844 35.117188 C 240.761719 35.957031 241.144531 36.816406 241.480469 37.691406 C 241.820312 38.570312 242.117188 39.460938 242.371094 40.363281 C 242.625 41.269531 242.832031 42.183594 243 43.109375 L 259.496094 46.488281 L 185.570312 55.734375 Z M 185.039062 51.539062 "/></g><path style=" stroke:none;fill-rule:nonzero;fill:#ffffff;fill-opacity:1;" d="M 263.375 275.878906 C 262.230469 275.878906 261.085938 275.847656 259.945312 275.789062 C 258.800781 275.730469 257.660156 275.640625 256.523438 275.523438 C 255.382812 275.410156 254.25 275.265625 253.117188 275.089844 C 251.988281 274.917969 250.859375 274.714844 249.738281 274.484375 C 248.621094 274.257812 247.503906 274 246.398438 273.710938 C 245.289062 273.425781 244.1875 273.113281 243.097656 272.773438 C 242.003906 272.429688 240.921875 272.0625 239.847656 271.667969 C 238.773438 271.273438 237.710938 270.851562 236.660156 270.402344 C 235.605469 269.953125 234.566406 269.476562 233.535156 268.976562 C 232.507812 268.476562 231.492188 267.949219 230.492188 267.394531 C 229.488281 266.84375 228.5 266.265625 227.527344 265.664062 C 226.554688 265.0625 225.597656 264.4375 224.65625 263.789062 C 223.714844 263.136719 222.789062 262.464844 221.878906 261.769531 C 220.972656 261.074219 220.082031 260.355469 219.210938 259.613281 C 218.339844 258.871094 217.484375 258.109375 216.652344 257.324219 C 215.820312 256.542969 215.003906 255.738281 214.210938 254.914062 C 213.417969 254.089844 212.648438 253.246094 211.894531 252.382812 C 211.144531 251.519531 210.417969 250.636719 209.710938 249.734375 C 209.003906 248.835938 208.320312 247.917969 207.660156 246.984375 C 207 246.050781 206.363281 245.101562 205.75 244.132812 C 205.136719 243.167969 204.546875 242.1875 203.984375 241.191406 C 203.421875 240.195312 202.882812 239.183594 202.371094 238.164062 C 201.859375 237.140625 201.371094 236.105469 200.910156 235.058594 C 200.449219 234.007812 200.015625 232.953125 199.609375 231.882812 C 199.199219 230.8125 198.820312 229.734375 198.464844 228.644531 C 198.113281 227.558594 197.785156 226.460938 197.488281 225.355469 C 197.191406 224.253906 196.917969 223.140625 196.675781 222.023438 C 196.433594 220.90625 196.21875 219.78125 196.035156 218.652344 C 195.847656 217.523438 195.691406 216.390625 195.5625 215.253906 C 195.433594 214.117188 195.332031 212.976562 195.257812 211.835938 C 195.1875 210.691406 195.144531 209.550781 195.128906 208.40625 C 195.113281 207.261719 195.128906 206.117188 195.171875 204.972656 C 196.558594 168.0625 228.097656 139.367188 265.046875 139.367188 L 307.394531 139.367188 C 307.394531 138.203125 307.339844 137.042969 307.222656 135.882812 C 307.109375 134.722656 306.941406 133.574219 306.710938 132.429688 C 306.484375 131.289062 306.203125 130.160156 305.863281 129.046875 C 305.527344 127.929688 305.132812 126.835938 304.6875 125.761719 C 304.242188 124.683594 303.746094 123.632812 303.195312 122.605469 C 302.648438 121.578125 302.050781 120.582031 301.402344 119.613281 C 300.757812 118.644531 300.0625 117.710938 299.324219 116.808594 C 298.585938 115.910156 297.804688 115.046875 296.980469 114.222656 C 296.15625 113.402344 295.296875 112.621094 294.394531 111.878906 C 293.496094 111.140625 292.558594 110.449219 291.59375 109.800781 C 290.625 109.15625 289.625 108.558594 288.597656 108.007812 C 287.570312 107.460938 286.519531 106.960938 285.445312 106.515625 C 284.367188 106.070312 283.273438 105.679688 282.160156 105.339844 C 281.042969 105.003906 279.917969 104.71875 278.773438 104.492188 C 277.632812 104.265625 276.480469 104.09375 275.320312 103.980469 C 274.164062 103.867188 273 103.808594 271.835938 103.808594 L 263.375 103.808594 C 261.796875 103.8125 260.222656 103.851562 258.644531 103.925781 C 257.070312 104 255.5 104.109375 253.929688 104.257812 C 252.359375 104.402344 250.792969 104.582031 249.230469 104.800781 C 247.667969 105.019531 246.113281 105.269531 244.5625 105.558594 C 243.011719 105.847656 241.46875 106.171875 239.933594 106.527344 C 238.398438 106.886719 236.871094 107.28125 235.355469 107.707031 C 233.835938 108.136719 232.332031 108.597656 230.832031 109.09375 C 229.335938 109.589844 227.851562 110.121094 226.378906 110.683594 C 224.90625 111.246094 223.449219 111.84375 222.003906 112.472656 C 220.558594 113.105469 219.128906 113.765625 217.710938 114.460938 C 216.296875 115.15625 214.898438 115.886719 213.515625 116.644531 C 212.132812 117.402344 210.769531 118.191406 209.425781 119.015625 C 208.078125 119.835938 206.75 120.6875 205.445312 121.566406 C 204.136719 122.449219 202.847656 123.359375 201.582031 124.296875 C 200.316406 125.238281 199.074219 126.207031 197.851562 127.203125 C 196.628906 128.199219 195.429688 129.222656 194.253906 130.273438 C 193.078125 131.324219 191.929688 132.402344 190.800781 133.507812 C 189.675781 134.609375 188.574219 135.738281 187.5 136.890625 C 186.425781 138.042969 185.375 139.222656 184.355469 140.421875 C 183.332031 141.625 182.339844 142.847656 181.375 144.09375 C 180.410156 145.339844 179.472656 146.609375 178.5625 147.898438 C 177.65625 149.1875 176.777344 150.496094 175.929688 151.824219 C 175.078125 153.152344 174.261719 154.5 173.472656 155.867188 C 172.6875 157.230469 171.929688 158.617188 171.207031 160.015625 C 170.480469 161.417969 169.789062 162.832031 169.128906 164.265625 C 168.46875 165.695312 167.84375 167.144531 167.25 168.605469 C 166.65625 170.0625 166.09375 171.539062 165.566406 173.023438 C 165.039062 174.507812 164.546875 176.007812 164.089844 177.515625 C 163.628906 179.023438 163.203125 180.542969 162.816406 182.070312 C 162.425781 183.597656 162.070312 185.132812 161.75 186.675781 C 161.429688 188.222656 161.144531 189.769531 160.894531 191.328125 C 160.644531 192.886719 160.429688 194.445312 160.253906 196.011719 C 159.5625 203.285156 158.445312 210.492188 156.910156 217.632812 C 156.054688 221.574219 155.066406 225.480469 153.941406 229.355469 C 152.820312 233.226562 151.566406 237.058594 150.179688 240.84375 C 148.796875 244.632812 147.28125 248.367188 145.640625 252.050781 C 144 255.734375 142.234375 259.359375 140.347656 262.921875 C 138.460938 266.484375 136.449219 269.980469 134.324219 273.40625 C 132.195312 276.832031 129.953125 280.179688 127.597656 283.453125 C 125.238281 286.722656 122.773438 289.914062 120.199219 293.015625 C 117.625 296.121094 114.945312 299.132812 112.164062 302.050781 C 109.386719 304.972656 106.507812 307.792969 103.535156 310.519531 C 100.558594 313.242188 97.496094 315.859375 94.34375 318.375 C 91.191406 320.886719 87.953125 323.292969 84.636719 325.585938 C 81.320312 327.878906 77.925781 330.054688 74.460938 332.113281 C 70.996094 334.175781 67.460938 336.113281 63.863281 337.933594 C 60.261719 339.753906 56.605469 341.445312 52.890625 343.015625 C 49.175781 344.582031 45.410156 346.023438 41.597656 347.335938 C 37.785156 348.644531 33.929688 349.824219 30.035156 350.871094 C 30.347656 352.019531 30.71875 353.144531 31.15625 354.253906 C 31.589844 355.359375 32.082031 356.4375 32.632812 357.488281 C 33.1875 358.542969 33.792969 359.5625 34.457031 360.546875 C 35.121094 361.53125 35.835938 362.480469 36.605469 363.386719 C 37.371094 364.296875 38.183594 365.15625 39.046875 365.976562 C 39.910156 366.796875 40.8125 367.5625 41.757812 368.285156 C 42.703125 369.003906 43.683594 369.671875 44.703125 370.28125 C 45.722656 370.894531 46.769531 371.449219 47.851562 371.949219 C 48.929688 372.445312 50.03125 372.882812 51.160156 373.261719 C 52.285156 373.636719 53.429688 373.953125 54.59375 374.203125 C 55.753906 374.457031 56.925781 374.644531 58.105469 374.769531 C 59.289062 374.890625 60.472656 374.949219 61.664062 374.945312 C 62.851562 374.9375 64.035156 374.867188 65.214844 374.734375 C 66.398438 374.597656 67.566406 374.398438 68.726562 374.136719 C 69.882812 373.875 71.023438 373.546875 72.148438 373.160156 C 73.273438 372.773438 74.371094 372.324219 75.445312 371.816406 C 81.09375 369.125 86.613281 366.191406 92 363.011719 C 97.386719 359.835938 102.625 356.425781 107.710938 352.78125 C 112.796875 349.140625 117.710938 345.277344 122.457031 341.199219 C 127.199219 337.121094 131.753906 332.84375 136.121094 328.359375 C 140.484375 323.878906 144.644531 319.214844 148.59375 314.363281 C 152.546875 309.515625 156.277344 304.5 159.785156 299.320312 C 163.289062 294.136719 166.5625 288.8125 169.597656 283.34375 C 172.632812 277.871094 175.421875 272.28125 177.960938 266.5625 C 180.335938 270.003906 182.910156 273.292969 185.683594 276.425781 C 188.457031 279.558594 191.40625 282.511719 194.535156 285.289062 C 197.664062 288.0625 200.949219 290.640625 204.390625 293.019531 C 207.832031 295.398438 211.40625 297.558594 215.105469 299.507812 C 218.808594 301.453125 222.617188 303.171875 226.527344 304.65625 C 230.4375 306.144531 234.421875 307.390625 238.480469 308.394531 C 242.542969 309.402344 246.648438 310.15625 250.800781 310.667969 C 254.953125 311.175781 259.121094 311.433594 263.300781 311.4375 C 265.042969 311.441406 266.773438 311.527344 268.503906 311.699219 C 270.234375 311.871094 271.953125 312.128906 273.65625 312.46875 C 275.363281 312.8125 277.046875 313.234375 278.707031 313.742188 C 280.371094 314.25 282.003906 314.835938 283.609375 315.5 C 285.214844 316.167969 286.785156 316.914062 288.316406 317.734375 C 289.851562 318.554688 291.339844 319.449219 292.78125 320.414062 C 294.226562 321.382812 295.621094 322.417969 296.964844 323.523438 C 298.308594 324.625 299.59375 325.792969 300.820312 327.023438 C 302.050781 328.253906 303.214844 329.539062 304.316406 330.882812 C 305.417969 332.230469 306.453125 333.625 307.417969 335.070312 C 308.382812 336.515625 309.273438 338.003906 310.09375 339.539062 C 310.914062 341.074219 311.65625 342.644531 312.320312 344.25 C 312.984375 345.855469 313.570312 347.492188 314.074219 349.152344 C 314.578125 350.816406 315 352.503906 315.335938 354.207031 C 315.675781 355.914062 315.929688 357.628906 316.101562 359.359375 C 316.269531 361.089844 316.355469 362.824219 316.355469 364.5625 C 316.960938 364.5625 317.566406 364.542969 318.171875 364.503906 C 318.773438 364.464844 319.378906 364.40625 319.976562 364.328125 C 320.578125 364.25 321.175781 364.15625 321.769531 364.039062 C 322.363281 363.925781 322.953125 363.789062 323.539062 363.636719 C 324.125 363.484375 324.707031 363.3125 325.28125 363.121094 C 325.855469 362.929688 326.425781 362.722656 326.984375 362.496094 C 327.546875 362.269531 328.101562 362.027344 328.648438 361.761719 C 329.195312 361.5 329.730469 361.222656 330.257812 360.925781 C 330.785156 360.628906 331.304688 360.316406 331.8125 359.988281 C 332.320312 359.660156 332.816406 359.3125 333.304688 358.953125 C 333.789062 358.589844 334.265625 358.214844 334.726562 357.824219 C 335.1875 357.433594 335.636719 357.027344 336.074219 356.605469 C 336.511719 356.1875 336.933594 355.753906 337.339844 355.308594 C 337.75 354.859375 338.144531 354.398438 338.523438 353.929688 C 338.902344 353.457031 339.265625 352.972656 339.613281 352.476562 C 339.960938 351.980469 340.292969 351.476562 340.609375 350.960938 C 340.925781 350.441406 341.226562 349.917969 341.507812 349.382812 C 341.789062 348.84375 342.054688 348.300781 342.300781 347.75 C 342.550781 347.195312 342.78125 346.636719 342.992188 346.070312 C 343.203125 345.5 343.398438 344.929688 343.570312 344.347656 C 343.746094 343.769531 343.902344 343.183594 344.042969 342.59375 C 344.179688 342.003906 344.296875 341.414062 344.398438 340.816406 C 344.5 340.21875 344.578125 339.617188 344.640625 339.015625 C 344.703125 338.414062 344.746094 337.808594 344.769531 337.203125 C 344.792969 336.597656 344.796875 335.996094 344.78125 335.390625 C 344.765625 334.785156 344.730469 334.179688 344.675781 333.578125 C 344.621094 332.972656 344.546875 332.371094 344.457031 331.773438 C 344.363281 331.175781 344.253906 330.582031 344.121094 329.988281 C 343.992188 329.398438 343.84375 328.8125 343.675781 328.230469 C 343.507812 327.648438 343.320312 327.074219 343.117188 326.503906 C 342.910156 325.933594 342.6875 325.371094 342.449219 324.8125 C 342.207031 324.257812 341.949219 323.710938 341.675781 323.171875 C 340.738281 321.402344 339.742188 319.667969 338.6875 317.964844 C 337.632812 316.261719 336.523438 314.597656 335.355469 312.96875 C 334.1875 311.34375 332.96875 309.757812 331.691406 308.210938 C 330.417969 306.667969 329.09375 305.167969 327.71875 303.710938 C 326.34375 302.253906 324.917969 300.847656 323.449219 299.488281 C 321.976562 298.128906 320.464844 296.820312 318.90625 295.566406 C 317.34375 294.308594 315.746094 293.105469 314.105469 291.957031 C 312.464844 290.808594 310.789062 289.714844 309.074219 288.679688 C 307.359375 287.644531 305.613281 286.667969 303.832031 285.753906 C 302.050781 284.835938 300.242188 283.980469 298.40625 283.183594 C 296.566406 282.390625 294.703125 281.65625 292.816406 280.988281 C 290.929688 280.320312 289.023438 279.714844 287.09375 279.175781 C 285.164062 278.632812 283.222656 278.160156 281.261719 277.75 C 279.300781 277.339844 277.328125 277 275.34375 276.722656 C 273.363281 276.449219 271.371094 276.238281 269.375 276.097656 C 267.375 275.957031 265.375 275.882812 263.375 275.878906 Z M 263.375 275.878906 "/><path style=" stroke:none;fill-rule:nonzero;fill:#ffffff;fill-opacity:1;" d="M 181.910156 91.328125 C 179.40625 88.117188 177.382812 84.632812 175.828125 80.875 C 175.832031 80.753906 175.832031 80.636719 175.828125 80.519531 L 76.691406 56.089844 L 33.128906 225.421875 L 139.273438 225.421875 C 139.558594 224.316406 139.808594 223.214844 140.054688 222.113281 C 142.117188 213.1875 143.613281 204.582031 144.714844 198.503906 C 145.105469 196.050781 145.425781 194.023438 145.675781 192.5625 L 146.066406 189.863281 C 146.671875 185.90625 147.472656 181.996094 148.472656 178.121094 C 149.472656 174.25 150.664062 170.4375 152.046875 166.683594 C 153.433594 162.929688 155 159.257812 156.753906 155.660156 C 158.507812 152.066406 160.4375 148.566406 162.542969 145.167969 C 164.648438 141.765625 166.921875 138.480469 169.355469 135.308594 C 171.792969 132.136719 174.382812 129.09375 177.125 126.183594 C 179.867188 123.269531 182.75 120.503906 185.773438 117.882812 C 188.792969 115.261719 191.9375 112.800781 195.207031 110.496094 C 197.589844 108.789062 200.042969 107.1875 202.53125 105.730469 C 198.46875 104.378906 194.683594 102.480469 191.171875 100.03125 C 187.664062 97.578125 184.574219 94.679688 181.910156 91.328125 Z M 102.363281 99.078125 L 144.5 109.5 C 139.789062 115.199219 135.507812 121.207031 131.664062 127.519531 C 127.816406 133.835938 124.441406 140.394531 121.542969 147.199219 C 118.640625 154 116.242188 160.972656 114.34375 168.121094 C 112.449219 175.269531 111.074219 182.515625 110.222656 189.863281 L 79 189.863281 Z M 102.363281 99.078125 "/><path style=" stroke:none;fill-rule:nonzero;fill:#ffffff;fill-opacity:1;" d="M 176.042969 80.625 L 175.542969 80.625 C 175.550781 80.742188 175.550781 80.863281 175.542969 80.980469 Z M 176.042969 80.625 "/><path style=" stroke:none;fill-rule:nonzero;fill:#ffffff;fill-opacity:1;" d="M 56.613281 95.171875 C 57.226562 95.328125 57.824219 95.542969 58.398438 95.816406 C 58.972656 96.089844 59.515625 96.417969 60.027344 96.796875 C 60.535156 97.175781 61.003906 97.601562 61.429688 98.074219 C 61.859375 98.546875 62.234375 99.058594 62.558594 99.605469 C 62.886719 100.152344 63.15625 100.726562 63.367188 101.328125 C 63.582031 101.925781 63.734375 102.542969 63.828125 103.171875 C 63.917969 103.804688 63.949219 104.4375 63.917969 105.074219 C 63.882812 105.710938 63.789062 106.335938 63.632812 106.957031 L 53.394531 147.574219 C 53.238281 148.191406 53.023438 148.789062 52.75 149.363281 C 52.476562 149.941406 52.152344 150.484375 51.769531 150.996094 C 51.390625 151.507812 50.964844 151.976562 50.492188 152.402344 C 50.019531 152.832031 49.511719 153.207031 48.964844 153.535156 C 48.417969 153.863281 47.84375 154.132812 47.246094 154.347656 C 46.644531 154.5625 46.03125 154.714844 45.402344 154.808594 C 44.773438 154.898438 44.140625 154.929688 43.503906 154.898438 C 42.867188 154.867188 42.242188 154.773438 41.625 154.617188 C 41.007812 154.460938 40.414062 154.246094 39.835938 153.972656 C 39.261719 153.699219 38.71875 153.375 38.210938 152.992188 C 37.699219 152.613281 37.230469 152.1875 36.804688 151.714844 C 36.378906 151.242188 36.003906 150.730469 35.675781 150.183594 C 35.351562 149.636719 35.082031 149.0625 34.867188 148.464844 C 34.652344 147.863281 34.5 147.25 34.410156 146.617188 C 34.316406 145.988281 34.289062 145.355469 34.320312 144.71875 C 34.351562 144.082031 34.445312 143.453125 34.601562 142.835938 L 44.84375 102.21875 C 45 101.601562 45.210938 101.003906 45.484375 100.425781 C 45.757812 99.851562 46.085938 99.308594 46.464844 98.796875 C 46.847656 98.285156 47.273438 97.816406 47.746094 97.386719 C 48.214844 96.960938 48.726562 96.582031 49.273438 96.253906 C 49.820312 95.929688 50.390625 95.65625 50.992188 95.445312 C 51.589844 95.230469 52.207031 95.078125 52.835938 94.984375 C 53.464844 94.890625 54.097656 94.859375 54.734375 94.890625 C 55.367188 94.925781 55.996094 95.019531 56.613281 95.171875 Z M 56.613281 95.171875 "/></g></svg>