<svg xmlns="http://www.w3.org/2000/svg" xmlns:xlink="http://www.w3.org/1999/xlink" width="851" zoomAndPan="magnify" viewBox="0 0 638.25 236.249991" height="315" preserveAspectRatio="xMidYMid meet" version="1.2"><defs><clipPath id="4f0eebedd6"><path d="M 5.179688 65.949219 L 121.265625 65.949219 L 121.265625 182.039062 L 5.179688 182.039062 Z M 5.179688 65.949219 "/></clipPath><clipPath id="7745c45e2c"><path d="M 62 71.535156 L 86 71.535156 L 86 84 L 62 84 Z M 62 71.535156 "/></clipPath><clipPath id="49b4daa3a8"><path d="M 14 98 L 112 98 L 112 182.183594 L 14 182.183594 Z M 14 98 "/></clipPath></defs><g id="1d3c4a239c"><g clip-rule="nonzero" clip-path="url(#4f0eebedd6)"><path style=" stroke:none;fill-rule:nonzero;fill:#ff6600;fill-opacity:1;" d="M 5.179688 65.949219 L 121.265625 65.949219 L 121.265625 182.039062 L 5.179688 182.039062 Z M 5.179688 65.949219 "/></g><path style=" stroke:none;fill-rule:nonzero;fill:#ffffff;fill-opacity:1;" d="M 81.316406 85.691406 C 81.296875 86.273438 81.21875 86.847656 81.089844 87.414062 C 80.957031 87.984375 80.773438 88.53125 80.539062 89.0625 C 80.300781 89.597656 80.015625 90.101562 79.683594 90.578125 C 79.347656 91.054688 78.972656 91.496094 78.550781 91.898438 C 78.132812 92.304688 77.679688 92.664062 77.191406 92.984375 C 76.703125 93.300781 76.1875 93.566406 75.648438 93.785156 C 75.109375 94.003906 74.554688 94.167969 73.980469 94.28125 C 73.410156 94.390625 72.832031 94.445312 72.25 94.445312 C 71.667969 94.445312 71.09375 94.390625 70.519531 94.28125 C 69.949219 94.167969 69.394531 94.003906 68.851562 93.785156 C 68.3125 93.566406 67.800781 93.300781 67.3125 92.984375 C 66.824219 92.664062 66.367188 92.304688 65.949219 91.898438 C 65.53125 91.496094 65.15625 91.054688 64.820312 90.578125 C 64.488281 90.101562 64.203125 89.597656 63.964844 89.0625 C 63.726562 88.53125 63.542969 87.984375 63.414062 87.414062 C 63.28125 86.847656 63.207031 86.273438 63.1875 85.691406 C 63.1875 85.371094 63.1875 85.054688 63.1875 84.746094 L 80.710938 82.542969 C 81.101562 83.554688 81.304688 84.605469 81.316406 85.691406 Z M 81.316406 85.691406 "/><g clip-rule="nonzero" clip-path="url(#7745c45e2c)"><path style=" stroke:none;fill-rule:nonzero;fill:#ffffff;fill-opacity:1;" d="M 62.460938 81.90625 C 62.394531 81.324219 62.386719 80.746094 62.433594 80.164062 C 62.480469 79.582031 62.582031 79.011719 62.738281 78.449219 C 62.894531 77.886719 63.105469 77.34375 63.367188 76.824219 C 63.625 76.300781 63.9375 75.8125 64.292969 75.347656 C 64.648438 74.886719 65.046875 74.464844 65.484375 74.078125 C 65.921875 73.695312 66.390625 73.355469 66.894531 73.058594 C 67.398438 72.765625 67.925781 72.523438 68.476562 72.328125 C 69.027344 72.136719 69.589844 71.996094 70.167969 71.914062 C 70.746094 71.832031 71.324219 71.800781 71.90625 71.832031 C 72.492188 71.859375 73.066406 71.941406 73.632812 72.082031 C 74.199219 72.21875 74.746094 72.410156 75.277344 72.65625 C 75.804688 72.898438 76.304688 73.191406 76.78125 73.535156 C 77.253906 73.875 77.6875 74.257812 78.085938 74.683594 C 78.488281 75.109375 78.839844 75.566406 79.152344 76.0625 C 79.460938 76.554688 79.722656 77.074219 79.933594 77.617188 C 80.144531 78.164062 80.300781 78.722656 80.402344 79.296875 L 85.511719 80.339844 L 62.625 83.203125 Z M 62.460938 81.90625 "/></g><g clip-rule="nonzero" clip-path="url(#49b4daa3a8)"><path style=" stroke:none;fill-rule:nonzero;fill:#ffffff;fill-opacity:1;" d="M 86.710938 151.351562 C 86 151.351562 85.292969 151.316406 84.589844 151.242188 C 83.882812 151.171875 83.183594 151.0625 82.488281 150.921875 C 81.796875 150.78125 81.109375 150.601562 80.433594 150.390625 C 79.757812 150.179688 79.09375 149.933594 78.441406 149.65625 C 77.789062 149.378906 77.152344 149.070312 76.53125 148.726562 C 75.910156 148.386719 75.308594 148.011719 74.722656 147.609375 C 74.140625 147.207031 73.578125 146.777344 73.039062 146.316406 C 72.5 145.859375 71.984375 145.375 71.492188 144.863281 C 71 144.351562 70.535156 143.816406 70.097656 143.261719 C 69.660156 142.703125 69.25 142.125 68.871094 141.527344 C 68.492188 140.925781 68.144531 140.3125 67.824219 139.675781 C 67.507812 139.042969 67.222656 138.394531 66.96875 137.734375 C 66.71875 137.070312 66.5 136.398438 66.3125 135.714844 C 66.128906 135.027344 65.980469 134.335938 65.863281 133.636719 C 65.75 132.9375 65.667969 132.234375 65.625 131.527344 C 65.578125 130.820312 65.570312 130.113281 65.597656 129.402344 C 66.027344 117.976562 75.789062 109.09375 87.226562 109.09375 L 100.339844 109.09375 C 100.335938 108.371094 100.265625 107.65625 100.125 106.945312 C 99.984375 106.238281 99.777344 105.550781 99.5 104.882812 C 99.222656 104.214844 98.882812 103.578125 98.484375 102.976562 C 98.082031 102.378906 97.625 101.820312 97.113281 101.308594 C 96.601562 100.800781 96.046875 100.34375 95.445312 99.941406 C 94.84375 99.539062 94.210938 99.199219 93.542969 98.925781 C 92.875 98.648438 92.1875 98.4375 91.476562 98.296875 C 90.769531 98.15625 90.054688 98.085938 89.328125 98.085938 L 86.710938 98.085938 C 85.734375 98.089844 84.757812 98.132812 83.785156 98.222656 C 82.8125 98.316406 81.847656 98.449219 80.886719 98.628906 C 79.925781 98.804688 78.976562 99.027344 78.035156 99.292969 C 77.097656 99.558594 76.171875 99.863281 75.257812 100.214844 C 74.347656 100.5625 73.453125 100.953125 72.574219 101.382812 C 71.699219 101.816406 70.84375 102.285156 70.007812 102.792969 C 69.175781 103.300781 68.367188 103.847656 67.582031 104.429688 C 66.796875 105.011719 66.042969 105.628906 65.3125 106.277344 C 64.585938 106.929688 63.886719 107.613281 63.222656 108.328125 C 62.554688 109.042969 61.925781 109.785156 61.324219 110.558594 C 60.726562 111.328125 60.164062 112.125 59.640625 112.949219 C 59.113281 113.773438 58.628906 114.617188 58.179688 115.484375 C 57.730469 116.351562 57.320312 117.238281 56.953125 118.144531 C 56.585938 119.050781 56.257812 119.96875 55.972656 120.902344 C 55.691406 121.835938 55.449219 122.78125 55.25 123.738281 C 55.050781 124.695312 54.898438 125.660156 54.789062 126.628906 C 54.574219 128.878906 54.226562 131.113281 53.753906 133.324219 C 53.222656 135.765625 52.527344 138.160156 51.667969 140.507812 C 50.8125 142.855469 49.796875 145.132812 48.625 147.34375 C 47.453125 149.550781 46.140625 151.667969 44.679688 153.699219 C 43.21875 155.726562 41.625 157.644531 39.902344 159.457031 C 38.175781 161.265625 36.339844 162.949219 34.382812 164.507812 C 32.429688 166.066406 30.378906 167.484375 28.230469 168.761719 C 26.082031 170.039062 23.855469 171.164062 21.550781 172.136719 C 19.25 173.109375 16.890625 173.917969 14.476562 174.570312 C 14.574219 174.925781 14.6875 175.273438 14.824219 175.613281 C 14.957031 175.957031 15.109375 176.292969 15.28125 176.617188 C 15.453125 176.941406 15.640625 177.257812 15.84375 177.5625 C 16.050781 177.867188 16.273438 178.160156 16.507812 178.441406 C 16.746094 178.722656 17 178.992188 17.265625 179.246094 C 17.53125 179.496094 17.8125 179.734375 18.105469 179.957031 C 18.398438 180.183594 18.703125 180.386719 19.015625 180.578125 C 19.332031 180.765625 19.65625 180.9375 19.992188 181.09375 C 20.324219 181.246094 20.667969 181.382812 21.015625 181.5 C 21.363281 181.617188 21.71875 181.714844 22.078125 181.792969 C 22.4375 181.871094 22.800781 181.925781 23.167969 181.964844 C 23.53125 182.003906 23.898438 182.023438 24.265625 182.019531 C 24.636719 182.019531 25 181.996094 25.367188 181.957031 C 25.734375 181.914062 26.09375 181.851562 26.453125 181.769531 C 26.8125 181.6875 27.164062 181.589844 27.511719 181.46875 C 27.859375 181.347656 28.199219 181.210938 28.535156 181.050781 C 32.039062 179.382812 35.367188 177.417969 38.523438 175.160156 C 41.675781 172.898438 44.609375 170.378906 47.316406 167.601562 C 50.023438 164.820312 52.464844 161.824219 54.640625 158.609375 C 56.816406 155.394531 58.695312 152.015625 60.269531 148.46875 C 61.746094 150.609375 63.457031 152.542969 65.398438 154.265625 C 67.34375 155.992188 69.46875 157.457031 71.769531 158.667969 C 74.070312 159.878906 76.480469 160.792969 79.003906 161.417969 C 81.527344 162.042969 84.089844 162.359375 86.6875 162.359375 C 87.226562 162.363281 87.761719 162.390625 88.296875 162.441406 C 88.835938 162.496094 89.367188 162.574219 89.894531 162.679688 C 90.421875 162.785156 90.941406 162.917969 91.457031 163.074219 C 91.972656 163.230469 92.476562 163.414062 92.976562 163.621094 C 93.472656 163.824219 93.957031 164.054688 94.433594 164.308594 C 94.90625 164.5625 95.367188 164.839844 95.8125 165.140625 C 96.261719 165.441406 96.691406 165.761719 97.109375 166.101562 C 97.523438 166.445312 97.921875 166.804688 98.304688 167.1875 C 98.683594 167.566406 99.042969 167.964844 99.386719 168.382812 C 99.726562 168.796875 100.046875 169.230469 100.34375 169.675781 C 100.644531 170.125 100.917969 170.585938 101.171875 171.058594 C 101.425781 171.535156 101.65625 172.019531 101.863281 172.519531 C 102.066406 173.015625 102.25 173.523438 102.40625 174.035156 C 102.5625 174.550781 102.691406 175.074219 102.796875 175.601562 C 102.902344 176.128906 102.980469 176.660156 103.03125 177.195312 C 103.085938 177.730469 103.113281 178.269531 103.113281 178.808594 C 103.488281 178.804688 103.859375 178.78125 104.234375 178.734375 C 104.605469 178.6875 104.972656 178.613281 105.335938 178.519531 C 105.699219 178.425781 106.054688 178.308594 106.402344 178.167969 C 106.75 178.027344 107.089844 177.863281 107.414062 177.679688 C 107.742188 177.496094 108.058594 177.292969 108.359375 177.070312 C 108.660156 176.847656 108.945312 176.605469 109.214844 176.34375 C 109.484375 176.082031 109.738281 175.808594 109.972656 175.515625 C 110.207031 175.222656 110.425781 174.914062 110.621094 174.59375 C 110.816406 174.277344 110.992188 173.945312 111.144531 173.601562 C 111.296875 173.257812 111.429688 172.910156 111.535156 172.550781 C 111.644531 172.191406 111.730469 171.824219 111.792969 171.457031 C 111.855469 171.085938 111.894531 170.710938 111.90625 170.335938 C 111.921875 169.960938 111.914062 169.589844 111.878906 169.214844 C 111.84375 168.839844 111.789062 168.46875 111.707031 168.105469 C 111.625 167.738281 111.523438 167.378906 111.394531 167.023438 C 111.269531 166.671875 111.121094 166.328125 110.949219 165.992188 C 110.367188 164.898438 109.714844 163.84375 108.992188 162.835938 C 108.269531 161.828125 107.480469 160.871094 106.628906 159.96875 C 105.777344 159.066406 104.867188 158.226562 103.902344 157.449219 C 102.933594 156.667969 101.917969 155.957031 100.855469 155.316406 C 99.796875 154.675781 98.695312 154.109375 97.554688 153.613281 C 96.414062 153.121094 95.25 152.707031 94.054688 152.375 C 92.859375 152.039062 91.644531 151.785156 90.417969 151.613281 C 89.1875 151.445312 87.953125 151.355469 86.710938 151.351562 Z M 86.710938 151.351562 "/></g><path style=" stroke:none;fill-rule:nonzero;fill:#ffffff;fill-opacity:1;" d="M 61.492188 94.222656 C 60.71875 93.230469 60.089844 92.148438 59.609375 90.984375 C 59.609375 90.949219 59.609375 90.914062 59.609375 90.875 L 28.917969 83.3125 L 15.433594 135.734375 L 48.292969 135.734375 C 48.378906 135.390625 48.457031 135.050781 48.535156 134.710938 C 49.171875 131.945312 49.636719 129.28125 49.976562 127.398438 C 50.097656 126.640625 50.195312 126.011719 50.273438 125.5625 L 50.394531 124.726562 C 50.769531 122.269531 51.390625 119.878906 52.246094 117.550781 C 53.105469 115.21875 54.1875 113 55.496094 110.890625 C 56.804688 108.777344 58.308594 106.820312 60.011719 105.011719 C 61.714844 103.203125 63.578125 101.585938 65.609375 100.15625 C 66.34375 99.628906 67.105469 99.132812 67.875 98.679688 C 65.304688 97.828125 63.175781 96.339844 61.492188 94.222656 Z M 36.867188 96.621094 L 49.910156 99.847656 C 46.976562 103.394531 44.609375 107.285156 42.804688 111.519531 C 40.996094 115.75 39.828125 120.152344 39.300781 124.726562 L 29.632812 124.726562 Z M 36.867188 96.621094 "/><path style=" stroke:none;fill-rule:nonzero;fill:#ffffff;fill-opacity:1;" d="M 59.675781 90.910156 L 59.519531 90.910156 C 59.523438 90.945312 59.523438 90.984375 59.519531 91.019531 Z M 59.675781 90.910156 "/><path style=" stroke:none;fill-rule:nonzero;fill:#ffffff;fill-opacity:1;" d="M 22.703125 95.414062 C 23.089844 95.511719 23.441406 95.675781 23.761719 95.914062 C 24.078125 96.152344 24.339844 96.441406 24.542969 96.785156 C 24.75 97.125 24.878906 97.496094 24.9375 97.890625 C 24.996094 98.285156 24.976562 98.671875 24.878906 99.058594 L 21.707031 111.632812 C 21.609375 112.019531 21.441406 112.375 21.203125 112.691406 C 20.96875 113.011719 20.675781 113.273438 20.335938 113.480469 C 19.996094 113.683594 19.625 113.816406 19.234375 113.875 C 18.839844 113.929688 18.449219 113.910156 18.0625 113.816406 C 17.679688 113.71875 17.324219 113.550781 17.007812 113.3125 C 16.6875 113.074219 16.425781 112.785156 16.222656 112.441406 C 16.019531 112.101562 15.886719 111.734375 15.832031 111.339844 C 15.773438 110.945312 15.792969 110.554688 15.890625 110.167969 L 19.058594 97.59375 C 19.15625 97.207031 19.324219 96.855469 19.5625 96.535156 C 19.800781 96.214844 20.089844 95.953125 20.429688 95.746094 C 20.773438 95.542969 21.140625 95.414062 21.535156 95.355469 C 21.929688 95.296875 22.316406 95.316406 22.703125 95.414062 Z M 22.703125 95.414062 "/><g style="fill:#ff6600;fill-opacity:1;"><g transform="translate(140.304735, 120.899822)"><path style="stroke:none" d="M -3.328125 -46.296875 L -3.328125 -56.03125 L 58.015625 -56.03125 L 58.015625 -46.296875 L 46.796875 -46.296875 L 46.796875 -30.015625 L 17.375 -30.015625 C 16.59375 -30.015625 15.925781 -29.859375 15.375 -29.546875 C 14.820312 -29.242188 14.546875 -28.648438 14.546875 -27.765625 C 14.546875 -26.328125 15.460938 -25.609375 17.296875 -25.609375 L 28.84375 -25.609375 C 35.269531 -25.609375 39.878906 -24.648438 42.671875 -22.734375 C 45.472656 -20.816406 46.875 -17.753906 46.875 -13.546875 L 46.875 -9.0625 L 38.5625 -9.0625 L 38.5625 -9.640625 C 38.5625 -11.242188 37.96875 -12.195312 36.78125 -12.5 C 35.59375 -12.8125 34.109375 -12.96875 32.328125 -12.96875 L 20.859375 -12.96875 C 19.203125 -12.96875 17.722656 -12.726562 16.421875 -12.25 C 15.117188 -11.78125 14.46875 -10.742188 14.46875 -9.140625 C 14.46875 -7.867188 14.921875 -6.910156 15.828125 -6.265625 C 16.742188 -5.628906 18.296875 -5.203125 20.484375 -4.984375 C 22.679688 -4.765625 25.660156 -4.65625 29.421875 -4.65625 C 33.578125 -4.65625 37.566406 -4.890625 41.390625 -5.359375 C 45.210938 -5.828125 48.648438 -6.394531 51.703125 -7.0625 L 51.703125 5.65625 C 48.546875 6.375 45.125 6.953125 41.4375 7.390625 C 37.75 7.835938 33.523438 8.0625 28.765625 8.0625 C 24.273438 8.0625 20.335938 7.617188 16.953125 6.734375 C 13.578125 5.847656 10.945312 4.253906 9.0625 1.953125 C 7.175781 -0.347656 6.234375 -3.546875 6.234375 -7.640625 C 6.234375 -10.910156 6.867188 -13.488281 8.140625 -15.375 C 9.421875 -17.257812 11.003906 -18.644531 12.890625 -19.53125 C 11.222656 -20.3125 9.695312 -21.488281 8.3125 -23.0625 C 6.925781 -24.644531 6.234375 -26.878906 6.234375 -29.765625 C 6.234375 -32.753906 6.9375 -35.132812 8.34375 -36.90625 C 9.757812 -38.675781 11.671875 -39.9375 14.078125 -40.6875 C 16.492188 -41.4375 19.195312 -41.8125 22.1875 -41.8125 L 38.484375 -41.8125 L 38.484375 -46.296875 Z M -3.328125 -46.296875 "/></g></g><g style="fill:#ff6600;fill-opacity:1;"><g transform="translate(194.991684, 120.899822)"><path style="stroke:none" d="M 6.65625 0 L 6.65625 -46.296875 L -3.328125 -46.296875 L -3.328125 -56.03125 L 24.9375 -56.03125 L 24.9375 -46.296875 L 14.96875 -46.296875 L 14.96875 0 Z M 6.65625 0 "/></g></g><g style="fill:#ff6600;fill-opacity:1;"><g transform="translate(222.752616, 120.899822)"><path style="stroke:none" d="M 34.65625 -21.53125 L 34.65625 -24.609375 L 16.046875 -24.609375 C 14.046875 -24.609375 13.046875 -23.75 13.046875 -22.03125 C 13.046875 -20.3125 14.046875 -19.453125 16.046875 -19.453125 L 32.171875 -19.453125 C 33.828125 -19.453125 34.65625 -20.144531 34.65625 -21.53125 Z M 57.03125 0 L 57.03125 -5.734375 L 24.265625 6.65625 L 23.78125 6.65625 L 23.78125 0.328125 L 57.03125 -11.890625 L 57.03125 -24.609375 L 42.96875 -24.609375 L 42.96875 -22.53125 C 42.96875 -19.09375 42.257812 -16.082031 40.84375 -13.5 C 39.4375 -10.925781 37.441406 -8.914062 34.859375 -7.46875 C 32.285156 -6.03125 29.285156 -5.3125 25.859375 -5.3125 L 21.859375 -5.3125 C 16.703125 -5.3125 12.554688 -6.804688 9.421875 -9.796875 C 6.296875 -12.796875 4.734375 -16.875 4.734375 -22.03125 C 4.734375 -26.789062 6.019531 -30.722656 8.59375 -33.828125 C 11.175781 -36.929688 15.046875 -38.484375 20.203125 -38.484375 L 34.65625 -38.484375 L 34.65625 -46.296875 L -3.328125 -46.296875 L -3.328125 -56.03125 L 75.3125 -56.03125 L 75.3125 -46.296875 L 65.34375 -46.296875 L 65.34375 0 Z M 57.03125 -38.484375 L 57.03125 -46.296875 L 42.96875 -46.296875 L 42.96875 -38.484375 Z M 57.03125 -38.484375 "/></g></g><g style="fill:#ff6600;fill-opacity:1;"><g transform="translate(294.726607, 120.899822)"><path style="stroke:none" d="M 6.65625 0 L 6.65625 -46.296875 L -3.328125 -46.296875 L -3.328125 -56.03125 L 6.40625 -56.03125 L 6.40625 -57.109375 C 6.40625 -59.265625 6.082031 -60.953125 5.4375 -62.171875 C 4.800781 -63.390625 3.609375 -64.25 1.859375 -64.75 C 0.117188 -65.25 -2.4375 -65.5 -5.8125 -65.5 C -8.476562 -65.5 -11.539062 -65.390625 -15 -65.171875 C -18.46875 -64.953125 -22.003906 -64.617188 -25.609375 -64.171875 L -25.609375 -76.640625 C -23.828125 -76.972656 -21.894531 -77.25 -19.8125 -77.46875 C -17.738281 -77.695312 -15.660156 -77.878906 -13.578125 -78.015625 C -11.503906 -78.148438 -9.664062 -78.21875 -8.0625 -78.21875 C -4.789062 -78.21875 -1.769531 -78.023438 1 -77.640625 C 3.769531 -77.253906 6.179688 -76.53125 8.234375 -75.46875 C 10.285156 -74.414062 11.878906 -72.890625 13.015625 -70.890625 C 14.148438 -68.898438 14.71875 -66.273438 14.71875 -63.015625 L 14.71875 -56.03125 L 24.9375 -56.03125 L 24.9375 -46.296875 L 14.96875 -46.296875 L 14.96875 0 Z M 6.65625 0 "/></g></g><g style="fill:#ff6600;fill-opacity:1;"><g transform="translate(322.48754, 120.899822)"><path style="stroke:none" d=""/></g></g><g style="fill:#ff6600;fill-opacity:1;"><g transform="translate(351.910693, 120.899822)"><path style="stroke:none" d="M 53.859375 0 L 53.859375 -46.296875 L 43.96875 -46.296875 L 43.96875 -23.6875 C 43.96875 -18.925781 43.082031 -15.160156 41.3125 -12.390625 C 39.539062 -9.617188 37.101562 -7.632812 34 -6.4375 C 30.894531 -5.25 27.320312 -4.65625 23.28125 -4.65625 L 22.78125 -4.65625 C 18.894531 -4.65625 15.457031 -5.289062 12.46875 -6.5625 C 9.476562 -7.84375 7.125 -9.785156 5.40625 -12.390625 C 3.6875 -14.992188 2.828125 -18.234375 2.828125 -22.109375 C 2.828125 -25.828125 3.6875 -29.015625 5.40625 -31.671875 C 7.125 -34.328125 9.492188 -36.375 12.515625 -37.8125 C 15.535156 -39.257812 18.957031 -39.984375 22.78125 -39.984375 C 25.101562 -39.984375 26.96875 -39.828125 28.375 -39.515625 C 29.789062 -39.210938 31.109375 -38.925781 32.328125 -38.65625 L 32.328125 -24.359375 C 30.285156 -24.742188 28.179688 -25.046875 26.015625 -25.265625 C 23.859375 -25.492188 21.78125 -25.609375 19.78125 -25.609375 C 17.175781 -25.609375 15.125 -25.382812 13.625 -24.9375 C 12.019531 -24.4375 11.21875 -23.519531 11.21875 -22.1875 C 11.21875 -20.800781 12.019531 -19.945312 13.625 -19.625 C 14.519531 -19.394531 15.671875 -19.253906 17.078125 -19.203125 C 18.492188 -19.148438 20.476562 -19.125 23.03125 -19.125 C 25.46875 -19.125 27.320312 -19.148438 28.59375 -19.203125 C 29.863281 -19.253906 31.109375 -19.394531 32.328125 -19.625 C 33.609375 -19.894531 34.484375 -20.40625 34.953125 -21.15625 C 35.421875 -21.90625 35.65625 -22.941406 35.65625 -24.265625 L 35.65625 -46.296875 L -3.328125 -46.296875 L -3.328125 -56.03125 L 72.15625 -56.03125 L 72.15625 -46.296875 L 62.171875 -46.296875 L 62.171875 0 Z M 53.859375 0 "/></g></g><g style="fill:#ff6600;fill-opacity:1;"><g transform="translate(420.726488, 120.899822)"><path style="stroke:none" d="M 6.65625 0 L 6.65625 -46.296875 L -3.328125 -46.296875 L -3.328125 -56.03125 L 24.9375 -56.03125 L 24.9375 -46.296875 L 14.96875 -46.296875 L 14.96875 0 Z M 6.65625 0 "/></g></g><g style="fill:#ff6600;fill-opacity:1;"><g transform="translate(448.48742, 120.899822)"><path style="stroke:none" d="M -3.328125 -46.296875 L -3.328125 -56.03125 L 6.984375 -56.03125 L 6.984375 -60.1875 C 6.984375 -64.0625 7.800781 -67.160156 9.4375 -69.484375 C 11.070312 -71.816406 13.34375 -73.519531 16.25 -74.59375 C 19.15625 -75.675781 22.550781 -76.21875 26.4375 -76.21875 L 56.28125 -76.21875 C 60.15625 -76.21875 63.546875 -75.675781 66.453125 -74.59375 C 69.367188 -73.519531 71.644531 -71.816406 73.28125 -69.484375 C 74.914062 -67.160156 75.734375 -64.0625 75.734375 -60.1875 L 75.734375 -52.28125 L 67.421875 -52.28125 L 67.421875 -55.359375 C 67.421875 -58.578125 66.570312 -60.960938 64.875 -62.515625 C 63.1875 -64.066406 60.734375 -64.84375 57.515625 -64.84375 L 25.1875 -64.84375 C 22.132812 -64.84375 19.75 -64.109375 18.03125 -62.640625 C 16.320312 -61.171875 15.410156 -58.96875 15.296875 -56.03125 L 24.9375 -56.03125 L 24.9375 -46.296875 L 14.96875 -46.296875 L 14.96875 0 L 6.65625 0 L 6.65625 -46.296875 Z M -3.328125 -46.296875 "/></g></g><g style="fill:#ff6600;fill-opacity:1;"><g transform="translate(470.096231, 120.899822)"><path style="stroke:none" d="M -3.328125 -46.296875 L -3.328125 -56.03125 L 72.0625 -56.03125 L 72.0625 -46.296875 L 54.859375 -46.296875 L 54.859375 -35.75 C 58.742188 -35.019531 61.65625 -33.242188 63.59375 -30.421875 C 65.53125 -27.597656 66.5 -24.023438 66.5 -19.703125 C 66.5 -13.492188 64.347656 -8.988281 60.046875 -6.1875 C 55.753906 -3.394531 49.453125 -2 41.140625 -2 L 29.421875 -2 C 24.429688 -2 20.082031 -2.453125 16.375 -3.359375 C 12.664062 -4.273438 9.785156 -5.882812 7.734375 -8.1875 C 5.679688 -10.488281 4.65625 -13.71875 4.65625 -17.875 C 4.65625 -21.582031 5.554688 -24.597656 7.359375 -26.921875 C 9.160156 -29.253906 11.414062 -30.695312 14.125 -31.25 C 12.90625 -31.363281 11.628906 -31.78125 10.296875 -32.5 C 8.972656 -33.21875 7.867188 -34.242188 6.984375 -35.578125 C 6.097656 -36.910156 5.65625 -38.546875 5.65625 -40.484375 C 5.65625 -42.921875 6.207031 -44.859375 7.3125 -46.296875 Z M 37.578125 -15.46875 C 40.898438 -15.46875 43.625 -15.476562 45.75 -15.5 C 47.882812 -15.53125 49.617188 -15.570312 50.953125 -15.625 C 52.285156 -15.675781 53.394531 -15.785156 54.28125 -15.953125 C 55.664062 -16.234375 56.617188 -16.59375 57.140625 -17.03125 C 57.671875 -17.476562 57.9375 -18.144531 57.9375 -19.03125 C 57.9375 -21.082031 56.578125 -22.109375 53.859375 -22.109375 L 48.296875 -22.109375 C 46.742188 -22.109375 45.578125 -21.914062 44.796875 -21.53125 C 44.023438 -21.144531 43.640625 -20.394531 43.640625 -19.28125 L 35.15625 -19.28125 C 35.15625 -23.550781 36.054688 -27.164062 37.859375 -30.125 C 39.660156 -33.09375 42.503906 -34.96875 46.390625 -35.75 L 46.390625 -46.296875 L 20.78125 -46.296875 C 19.113281 -46.296875 17.671875 -46.03125 16.453125 -45.5 C 15.234375 -44.976562 14.625 -43.914062 14.625 -42.3125 C 14.625 -40.707031 15.234375 -39.640625 16.453125 -39.109375 C 17.671875 -38.585938 19.171875 -38.328125 20.953125 -38.328125 L 30.5 -38.328125 L 30.5 -23.6875 L 17.625 -23.6875 C 16.238281 -23.6875 15.144531 -23.394531 14.34375 -22.8125 C 13.539062 -22.226562 13.140625 -21.359375 13.140625 -20.203125 C 13.140625 -18.753906 13.84375 -17.679688 15.25 -16.984375 C 16.664062 -16.296875 19.144531 -15.867188 22.6875 -15.703125 C 26.238281 -15.546875 31.203125 -15.46875 37.578125 -15.46875 Z M 37.578125 -15.46875 "/></g></g><g style="fill:#ff6600;fill-opacity:1;"><g transform="translate(544.98104, 120.899822)"><path style="stroke:none" d="M 47.296875 0 L 47.296875 -6.90625 C 44.910156 -6.507812 42.25 -6.171875 39.3125 -5.890625 C 36.375 -5.617188 33.550781 -5.484375 30.84375 -5.484375 C 25.800781 -5.484375 21.4375 -5.984375 17.75 -6.984375 C 14.0625 -7.984375 11.21875 -9.769531 9.21875 -12.34375 C 7.226562 -14.914062 6.234375 -18.5625 6.234375 -23.28125 L 6.234375 -40.640625 C 8.003906 -40.421875 9.75 -40.242188 11.46875 -40.109375 C 13.1875 -39.972656 14.988281 -39.90625 16.875 -39.90625 C 18.144531 -39.90625 19.363281 -39.914062 20.53125 -39.9375 C 21.695312 -39.96875 22.941406 -40.066406 24.265625 -40.234375 C 25.710938 -40.398438 26.710938 -40.757812 27.265625 -41.3125 C 27.816406 -41.863281 28.09375 -42.613281 28.09375 -43.5625 C 28.09375 -45.382812 26.847656 -46.296875 24.359375 -46.296875 L -3.328125 -46.296875 L -3.328125 -56.03125 L 65.578125 -56.03125 L 65.578125 -46.296875 L 55.609375 -46.296875 L 55.609375 0 Z M 32.328125 -20.109375 C 34.941406 -20.109375 37.578125 -20.25 40.234375 -20.53125 C 42.890625 -20.8125 45.242188 -21.171875 47.296875 -21.609375 L 47.296875 -46.296875 L 35.15625 -46.296875 C 36.101562 -44.691406 36.578125 -42.695312 36.578125 -40.3125 C 36.578125 -35.769531 35.453125 -32.15625 33.203125 -29.46875 C 30.960938 -26.78125 27.375 -25.4375 22.4375 -25.4375 C 20.882812 -25.4375 19.429688 -25.488281 18.078125 -25.59375 C 16.722656 -25.707031 15.546875 -25.847656 14.546875 -26.015625 L 14.546875 -25.265625 C 14.546875 -23.109375 15.957031 -21.707031 18.78125 -21.0625 C 21.613281 -20.425781 26.128906 -20.109375 32.328125 -20.109375 Z M 32.328125 -20.109375 "/></g></g><g style="fill:#ff6600;fill-opacity:1;"><g transform="translate(607.231062, 120.899822)"><path style="stroke:none" d="M 6.65625 0 L 6.65625 -46.296875 L -3.328125 -46.296875 L -3.328125 -56.03125 L 24.9375 -56.03125 L 24.9375 -46.296875 L 14.96875 -46.296875 L 14.96875 0 Z M 6.65625 0 "/></g></g><path style="fill:none;stroke-width:13;stroke-linecap:butt;stroke-linejoin:miter;stroke:#ff6600;stroke-opacity:1;stroke-miterlimit:4;" d="M -0.00197211 6.499984 L 559.204567 6.499984 " transform="matrix(0.747355,0,0,0.747355,175.563974,141.462517)"/><g style="fill:#ff6600;fill-opacity:1;"><g transform="translate(251.836871, 175.982909)"><path style="stroke:none" d="M 12.46875 0 L 12.46875 -4.078125 L 10.015625 -4.078125 C 9.921875 -3.359375 9.648438 -2.78125 9.203125 -2.34375 C 8.753906 -1.90625 8.203125 -1.582031 7.546875 -1.375 C 6.898438 -1.175781 6.210938 -1.078125 5.484375 -1.078125 C 5.066406 -1.078125 4.609375 -1.097656 4.109375 -1.140625 C 3.609375 -1.179688 3.132812 -1.242188 2.6875 -1.328125 C 2.25 -1.421875 1.894531 -1.523438 1.625 -1.640625 L 1.625 -4.953125 C 2.1875 -4.785156 2.785156 -4.644531 3.421875 -4.53125 C 4.054688 -4.425781 4.648438 -4.375 5.203125 -4.375 C 6.160156 -4.375 6.882812 -4.425781 7.375 -4.53125 C 7.863281 -4.644531 8.109375 -4.847656 8.109375 -5.140625 C 8.109375 -5.421875 7.847656 -5.5625 7.328125 -5.5625 L 4.875 -5.5625 L 4.875 -8.5625 L 7.203125 -8.5625 C 7.472656 -8.5625 7.691406 -8.597656 7.859375 -8.671875 C 8.023438 -8.742188 8.109375 -8.878906 8.109375 -9.078125 C 8.109375 -9.359375 7.925781 -9.539062 7.5625 -9.625 C 7.195312 -9.707031 6.578125 -9.75 5.703125 -9.75 C 5.316406 -9.75 4.878906 -9.726562 4.390625 -9.6875 C 3.898438 -9.644531 3.410156 -9.578125 2.921875 -9.484375 C 2.441406 -9.398438 2.007812 -9.300781 1.625 -9.1875 L 1.625 -12.484375 C 1.90625 -12.597656 2.257812 -12.695312 2.6875 -12.78125 C 3.125 -12.875 3.585938 -12.945312 4.078125 -13 C 4.566406 -13.0625 5.035156 -13.09375 5.484375 -13.09375 C 6.847656 -13.09375 7.953125 -12.800781 8.796875 -12.21875 C 9.640625 -11.632812 10.0625 -10.726562 10.0625 -9.5 C 10.0625 -8.9375 9.921875 -8.445312 9.640625 -8.03125 C 9.359375 -7.625 9.007812 -7.304688 8.59375 -7.078125 L 12.46875 -7.078125 L 12.46875 -12.890625 L 16.671875 -12.890625 L 16.671875 -10.65625 L 14.375 -10.65625 L 14.375 0 Z M 12.46875 0 "/></g></g><g style="fill:#ff6600;fill-opacity:1;"><g transform="translate(269.16213, 175.982909)"><path style="stroke:none" d="M 9.984375 0 L 9.984375 -1.609375 C 9.429688 -1.453125 8.835938 -1.332031 8.203125 -1.25 C 7.578125 -1.175781 6.867188 -1.140625 6.078125 -1.140625 C 5.054688 -1.140625 4.164062 -1.285156 3.40625 -1.578125 C 2.65625 -1.867188 2.070312 -2.328125 1.65625 -2.953125 C 1.238281 -3.585938 1.03125 -4.421875 1.03125 -5.453125 C 1.03125 -6.878906 1.453125 -7.925781 2.296875 -8.59375 C 3.140625 -9.257812 4.257812 -9.59375 5.65625 -9.59375 C 6.28125 -9.59375 6.847656 -9.554688 7.359375 -9.484375 C 7.878906 -9.410156 8.367188 -9.296875 8.828125 -9.140625 L 8.828125 -5.953125 C 8.347656 -6.078125 7.894531 -6.171875 7.46875 -6.234375 C 7.050781 -6.296875 6.578125 -6.332031 6.046875 -6.34375 L 7.40625 -4.421875 C 7.925781 -4.441406 8.382812 -4.488281 8.78125 -4.5625 C 9.1875 -4.644531 9.585938 -4.738281 9.984375 -4.84375 L 9.984375 -10.65625 L -0.765625 -10.65625 L -0.765625 -12.890625 L 14.1875 -12.890625 L 14.1875 -10.65625 L 11.890625 -10.65625 L 11.890625 0 Z M 5.5625 -4.359375 C 5.664062 -4.359375 5.769531 -4.359375 5.875 -4.359375 C 5.976562 -4.359375 6.070312 -4.359375 6.15625 -4.359375 L 4.796875 -6.3125 C 4.234375 -6.257812 3.78125 -6.15625 3.4375 -6 C 3.101562 -5.851562 2.9375 -5.644531 2.9375 -5.375 C 2.9375 -5.082031 3.164062 -4.835938 3.625 -4.640625 C 4.09375 -4.453125 4.738281 -4.359375 5.5625 -4.359375 Z M 5.5625 -4.359375 "/></g></g><g style="fill:#ff6600;fill-opacity:1;"><g transform="translate(290.770881, 175.982909)"><path style="stroke:none" d="M 10.65625 0 L 10.65625 -1.484375 C 10.15625 -1.390625 9.601562 -1.3125 9 -1.25 C 8.394531 -1.195312 7.695312 -1.171875 6.90625 -1.171875 C 5.769531 -1.171875 4.753906 -1.265625 3.859375 -1.453125 C 2.972656 -1.640625 2.273438 -1.992188 1.765625 -2.515625 C 1.253906 -3.035156 1 -3.769531 1 -4.71875 C 1 -5.394531 1.179688 -6 1.546875 -6.53125 C 1.921875 -7.0625 2.40625 -7.390625 3 -7.515625 C 2.476562 -7.578125 2.023438 -7.789062 1.640625 -8.15625 C 1.265625 -8.519531 1.078125 -9.007812 1.078125 -9.625 C 1.078125 -10.03125 1.144531 -10.375 1.28125 -10.65625 L -0.765625 -10.65625 L -0.765625 -12.890625 L 14.859375 -12.890625 L 14.859375 -10.65625 L 12.5625 -10.65625 L 12.5625 0 Z M 7.03125 -4.515625 C 7.851562 -4.515625 8.539062 -4.539062 9.09375 -4.59375 C 9.65625 -4.644531 10.175781 -4.710938 10.65625 -4.796875 L 10.65625 -10.65625 L 3.875 -10.65625 C 3.632812 -10.65625 3.425781 -10.597656 3.25 -10.484375 C 3.082031 -10.378906 3 -10.207031 3 -9.96875 C 3 -9.707031 3.082031 -9.523438 3.25 -9.421875 C 3.425781 -9.328125 3.632812 -9.28125 3.875 -9.28125 L 8.6875 -9.28125 L 8.6875 -5.875 L 3.65625 -5.875 C 3.457031 -5.875 3.289062 -5.828125 3.15625 -5.734375 C 3.03125 -5.648438 2.96875 -5.507812 2.96875 -5.3125 C 2.96875 -5.007812 3.179688 -4.804688 3.609375 -4.703125 C 4.035156 -4.617188 4.539062 -4.566406 5.125 -4.546875 C 5.707031 -4.523438 6.34375 -4.515625 7.03125 -4.515625 Z M 7.03125 -4.515625 "/></g></g><g style="fill:#ff6600;fill-opacity:1;"><g transform="translate(306.27946, 175.982909)"><path style="stroke:none" d="M -0.765625 -10.65625 L -0.765625 -12.890625 L 11.359375 -12.890625 L 11.359375 -10.65625 L 8.796875 -10.65625 C 8.898438 -10.445312 8.976562 -10.207031 9.03125 -9.9375 C 9.09375 -9.675781 9.125 -9.378906 9.125 -9.046875 C 9.125 -7.722656 8.738281 -6.765625 7.96875 -6.171875 C 7.207031 -5.585938 6.179688 -5.296875 4.890625 -5.296875 C 4.535156 -5.296875 4.226562 -5.304688 3.96875 -5.328125 C 3.707031 -5.359375 3.441406 -5.394531 3.171875 -5.4375 L 3.171875 -4.875 C 3.171875 -4.320312 3.347656 -3.96875 3.703125 -3.8125 C 4.054688 -3.65625 4.703125 -3.578125 5.640625 -3.578125 C 6.273438 -3.578125 6.941406 -3.625 7.640625 -3.71875 C 8.335938 -3.820312 8.957031 -3.972656 9.5 -4.171875 L 9.5 -0.65625 C 9.03125 -0.488281 8.492188 -0.351562 7.890625 -0.25 C 7.285156 -0.144531 6.535156 -0.09375 5.640625 -0.09375 C 4.148438 -0.09375 3.046875 -0.382812 2.328125 -0.96875 C 1.609375 -1.5625 1.25 -2.539062 1.25 -3.90625 L 1.25 -8.828125 C 1.726562 -8.796875 2.117188 -8.769531 2.421875 -8.75 C 2.722656 -8.726562 3.003906 -8.710938 3.265625 -8.703125 C 3.523438 -8.703125 3.832031 -8.703125 4.1875 -8.703125 C 5.28125 -8.703125 6.050781 -8.78125 6.5 -8.9375 C 6.957031 -9.101562 7.1875 -9.398438 7.1875 -9.828125 C 7.1875 -10.378906 6.773438 -10.65625 5.953125 -10.65625 Z M -0.765625 -10.65625 "/></g></g><g style="fill:#ff6600;fill-opacity:1;"><g transform="translate(318.28856, 175.982909)"><path style="stroke:none" d="M 7.96875 -4.859375 L 7.96875 -5.65625 L 3.6875 -5.65625 C 3.488281 -5.65625 3.320312 -5.59375 3.1875 -5.46875 C 3.0625 -5.351562 3 -5.1875 3 -4.96875 C 3 -4.769531 3.0625 -4.601562 3.1875 -4.46875 C 3.320312 -4.34375 3.488281 -4.28125 3.6875 -4.28125 L 7.40625 -4.28125 C 7.582031 -4.28125 7.71875 -4.332031 7.8125 -4.4375 C 7.914062 -4.550781 7.96875 -4.691406 7.96875 -4.859375 Z M 13.125 0 L 13.125 -5.65625 L 9.890625 -5.65625 L 9.890625 -5.09375 C 9.890625 -4.300781 9.722656 -3.597656 9.390625 -2.984375 C 9.066406 -2.367188 8.609375 -1.890625 8.015625 -1.546875 C 7.429688 -1.203125 6.742188 -1.03125 5.953125 -1.03125 L 5.03125 -1.03125 C 4.238281 -1.03125 3.546875 -1.191406 2.953125 -1.515625 C 2.359375 -1.847656 1.898438 -2.304688 1.578125 -2.890625 C 1.253906 -3.484375 1.09375 -4.175781 1.09375 -4.96875 C 1.09375 -5.695312 1.222656 -6.351562 1.484375 -6.9375 C 1.742188 -7.53125 2.140625 -8 2.671875 -8.34375 C 3.203125 -8.6875 3.859375 -8.859375 4.640625 -8.859375 L 7.96875 -8.859375 L 7.96875 -10.65625 L -0.765625 -10.65625 L -0.765625 -12.890625 L 17.328125 -12.890625 L 17.328125 -10.65625 L 15.03125 -10.65625 L 15.03125 0 Z M 13.125 -8.859375 L 13.125 -10.65625 L 9.890625 -10.65625 L 9.890625 -8.859375 Z M 13.125 -8.859375 "/></g></g><g style="fill:#ff6600;fill-opacity:1;"><g transform="translate(334.848942, 175.982909)"><path style="stroke:none" d="M -3.4375 -12.03125 L -3.4375 -12.65625 C -3.4375 -13.09375 -3.515625 -13.410156 -3.671875 -13.609375 C -3.835938 -13.816406 -4.125 -13.953125 -4.53125 -14.015625 C -4.945312 -14.078125 -5.546875 -14.109375 -6.328125 -14.109375 C -6.898438 -14.109375 -7.597656 -14.085938 -8.421875 -14.046875 C -9.242188 -14.003906 -10.0625 -13.929688 -10.875 -13.828125 L -10.875 -15.71875 C -10.53125 -15.78125 -10.109375 -15.832031 -9.609375 -15.875 C -9.117188 -15.925781 -8.617188 -15.960938 -8.109375 -15.984375 C -7.597656 -16.015625 -7.160156 -16.03125 -6.796875 -16.03125 C -6.035156 -16.03125 -5.375 -15.988281 -4.8125 -15.90625 C -4.257812 -15.820312 -3.800781 -15.648438 -3.4375 -15.390625 C -3.457031 -15.847656 -3.597656 -16.191406 -3.859375 -16.421875 C -4.128906 -16.648438 -4.488281 -16.800781 -4.9375 -16.875 C -5.394531 -16.945312 -5.921875 -16.984375 -6.515625 -16.984375 C -7.128906 -16.984375 -7.800781 -16.953125 -8.53125 -16.890625 C -9.269531 -16.835938 -10.050781 -16.757812 -10.875 -16.65625 L -10.875 -19.0625 C -10.289062 -19.164062 -9.625 -19.25 -8.875 -19.3125 C -8.125 -19.375 -7.445312 -19.40625 -6.84375 -19.40625 C -5.695312 -19.40625 -4.734375 -19.296875 -3.953125 -19.078125 C -3.179688 -18.867188 -2.597656 -18.476562 -2.203125 -17.90625 C -1.804688 -17.34375 -1.609375 -16.519531 -1.609375 -15.4375 L -1.609375 -12.03125 Z M -3.4375 -12.03125 "/></g></g><g style="fill:#ff6600;fill-opacity:1;"><g transform="translate(336.263999, 175.982909)"><path style="stroke:none" d=""/></g></g><g style="fill:#ff6600;fill-opacity:1;"><g transform="translate(343.033463, 175.982909)"><path style="stroke:none" d="M 7.234375 -6.921875 C 7.710938 -6.921875 8.21875 -6.945312 8.75 -7 C 9.28125 -7.0625 9.742188 -7.144531 10.140625 -7.25 L 10.140625 -10.65625 L 3.515625 -10.65625 L 3.515625 -9.25 C 3.515625 -8.675781 3.554688 -8.234375 3.640625 -7.921875 C 3.722656 -7.609375 3.890625 -7.378906 4.140625 -7.234375 C 4.390625 -7.085938 4.757812 -7 5.25 -6.96875 C 5.738281 -6.9375 6.398438 -6.921875 7.234375 -6.921875 Z M 10.140625 0 L 10.140625 -3.53125 C 9.578125 -3.40625 9.015625 -3.316406 8.453125 -3.265625 C 7.890625 -3.210938 7.257812 -3.1875 6.5625 -3.1875 C 5.5 -3.1875 4.597656 -3.289062 3.859375 -3.5 C 3.117188 -3.707031 2.554688 -4.085938 2.171875 -4.640625 C 1.796875 -5.191406 1.609375 -5.988281 1.609375 -7.03125 L 1.609375 -10.65625 L -0.765625 -10.65625 L -0.765625 -12.890625 L 14.34375 -12.890625 L 14.34375 -10.65625 L 12.046875 -10.65625 L 12.046875 0 Z M 10.140625 0 "/></g></g><g style="fill:#ff6600;fill-opacity:1;"><g transform="translate(356.610688, 175.982909)"><path style="stroke:none" d="M -3.875 2.25 C -3.207031 2.25 -2.648438 2.210938 -2.203125 2.140625 C -1.765625 2.078125 -1.546875 1.875 -1.546875 1.53125 C -1.546875 1.238281 -1.6875 1.046875 -1.96875 0.953125 C -2.25 0.867188 -2.554688 0.828125 -2.890625 0.828125 C -3.429688 0.828125 -3.820312 0.921875 -4.0625 1.109375 C -4.3125 1.296875 -4.4375 1.671875 -4.4375 2.234375 C -4.332031 2.242188 -4.234375 2.25 -4.140625 2.25 C -4.054688 2.25 -3.96875 2.25 -3.875 2.25 Z M 0.359375 2.125 C 0.359375 3.03125 0.164062 3.703125 -0.21875 4.140625 C -0.601562 4.578125 -1.132812 4.863281 -1.8125 5 C -2.488281 5.132812 -3.25 5.203125 -4.09375 5.203125 C -4.675781 5.203125 -5.300781 5.160156 -5.96875 5.078125 C -6.644531 4.992188 -7.300781 4.867188 -7.9375 4.703125 C -8.570312 4.546875 -9.148438 4.351562 -9.671875 4.125 L -9.671875 1.25 L -9.546875 1.171875 C -9.097656 1.304688 -8.585938 1.453125 -8.015625 1.609375 C -7.453125 1.765625 -6.878906 1.898438 -6.296875 2.015625 C -6.203125 1.179688 -5.875 0.578125 -5.3125 0.203125 C -4.75 -0.160156 -3.984375 -0.34375 -3.015625 -0.34375 C -1.921875 -0.34375 -1.082031 -0.144531 -0.5 0.25 C 0.0703125 0.644531 0.359375 1.269531 0.359375 2.125 Z M 0.359375 2.125 "/></g></g><g style="fill:#ff6600;fill-opacity:1;"><g transform="translate(358.025745, 175.982909)"><path style="stroke:none" d="M 7.4375 -8.890625 L 7.4375 -5.609375 C 6.96875 -5.691406 6.484375 -5.757812 5.984375 -5.8125 C 5.484375 -5.863281 5.003906 -5.890625 4.546875 -5.890625 C 3.953125 -5.890625 3.484375 -5.835938 3.140625 -5.734375 C 2.765625 -5.617188 2.578125 -5.410156 2.578125 -5.109375 C 2.578125 -4.785156 2.765625 -4.585938 3.140625 -4.515625 C 3.335938 -4.460938 3.597656 -4.429688 3.921875 -4.421875 C 4.253906 -4.410156 4.710938 -4.40625 5.296875 -4.40625 C 5.859375 -4.40625 6.285156 -4.410156 6.578125 -4.421875 C 6.867188 -4.429688 7.15625 -4.460938 7.4375 -4.515625 C 7.726562 -4.578125 7.925781 -4.691406 8.03125 -4.859375 C 8.144531 -5.035156 8.203125 -5.273438 8.203125 -5.578125 L 8.203125 -10.65625 L -0.765625 -10.65625 L -0.765625 -12.890625 L 16.59375 -12.890625 L 16.59375 -10.65625 L 10.109375 -10.65625 L 10.109375 -5.453125 C 10.109375 -4.359375 9.90625 -3.488281 9.5 -2.84375 C 9.09375 -2.207031 8.53125 -1.753906 7.8125 -1.484375 C 7.101562 -1.210938 6.285156 -1.078125 5.359375 -1.078125 L 5.234375 -1.078125 C 4.347656 -1.078125 3.5625 -1.222656 2.875 -1.515625 C 2.1875 -1.804688 1.644531 -2.25 1.25 -2.84375 C 0.851562 -3.445312 0.65625 -4.195312 0.65625 -5.09375 C 0.65625 -5.945312 0.851562 -6.675781 1.25 -7.28125 C 1.644531 -7.894531 2.1875 -8.367188 2.875 -8.703125 C 3.570312 -9.035156 4.359375 -9.203125 5.234375 -9.203125 C 5.773438 -9.203125 6.207031 -9.164062 6.53125 -9.09375 C 6.851562 -9.019531 7.15625 -8.953125 7.4375 -8.890625 Z M 7.4375 -8.890625 "/></g></g><g style="fill:#ff6600;fill-opacity:1;"><g transform="translate(371.813277, 175.982909)"><path style="stroke:none" d="M -0.765625 -10.65625 L -0.765625 -12.890625 L 16.578125 -12.890625 L 16.578125 -10.65625 L 12.625 -10.65625 L 12.625 -8.21875 C 13.519531 -8.050781 14.1875 -7.644531 14.625 -7 C 15.070312 -6.351562 15.296875 -5.53125 15.296875 -4.53125 C 15.296875 -3.101562 14.800781 -2.066406 13.8125 -1.421875 C 12.820312 -0.773438 11.375 -0.453125 9.46875 -0.453125 L 6.765625 -0.453125 C 5.617188 -0.453125 4.617188 -0.554688 3.765625 -0.765625 C 2.910156 -0.984375 2.25 -1.351562 1.78125 -1.875 C 1.3125 -2.40625 1.078125 -3.148438 1.078125 -4.109375 C 1.078125 -4.960938 1.28125 -5.65625 1.6875 -6.1875 C 2.101562 -6.726562 2.625 -7.0625 3.25 -7.1875 C 2.96875 -7.21875 2.671875 -7.3125 2.359375 -7.46875 C 2.054688 -7.632812 1.800781 -7.867188 1.59375 -8.171875 C 1.394531 -8.484375 1.296875 -8.863281 1.296875 -9.3125 C 1.296875 -9.875 1.425781 -10.320312 1.6875 -10.65625 Z M 8.640625 -3.5625 C 9.410156 -3.5625 10.039062 -3.5625 10.53125 -3.5625 C 11.019531 -3.570312 11.414062 -3.582031 11.71875 -3.59375 C 12.03125 -3.601562 12.285156 -3.628906 12.484375 -3.671875 C 12.804688 -3.734375 13.023438 -3.816406 13.140625 -3.921875 C 13.265625 -4.023438 13.328125 -4.175781 13.328125 -4.375 C 13.328125 -4.851562 13.015625 -5.09375 12.390625 -5.09375 L 11.109375 -5.09375 C 10.753906 -5.09375 10.488281 -5.046875 10.3125 -4.953125 C 10.132812 -4.859375 10.046875 -4.6875 10.046875 -4.4375 L 8.09375 -4.4375 C 8.09375 -5.414062 8.296875 -6.242188 8.703125 -6.921875 C 9.117188 -7.609375 9.773438 -8.039062 10.671875 -8.21875 L 10.671875 -10.65625 L 4.78125 -10.65625 C 4.394531 -10.65625 4.0625 -10.59375 3.78125 -10.46875 C 3.5 -10.351562 3.359375 -10.109375 3.359375 -9.734375 C 3.359375 -9.367188 3.5 -9.125 3.78125 -9 C 4.0625 -8.875 4.40625 -8.8125 4.8125 -8.8125 L 7.015625 -8.8125 L 7.015625 -5.453125 L 4.046875 -5.453125 C 3.734375 -5.453125 3.484375 -5.382812 3.296875 -5.25 C 3.109375 -5.113281 3.015625 -4.910156 3.015625 -4.640625 C 3.015625 -4.316406 3.175781 -4.070312 3.5 -3.90625 C 3.832031 -3.75 4.40625 -3.648438 5.21875 -3.609375 C 6.03125 -3.578125 7.171875 -3.5625 8.640625 -3.5625 Z M 8.640625 -3.5625 "/></g></g><g style="fill:#ff6600;fill-opacity:1;"><g transform="translate(389.042926, 175.982909)"><path style="stroke:none" d="M 1.359375 2.890625 L 1.359375 1.21875 C 1.984375 1.21875 2.441406 1.15625 2.734375 1.03125 C 3.035156 0.90625 3.234375 0.625 3.328125 0.1875 C 3.304688 0.1875 3.273438 0.1875 3.234375 0.1875 C 3.191406 0.1875 3.15625 0.1875 3.125 0.1875 C 2.269531 0.1875 1.675781 0.0664062 1.34375 -0.171875 C 1.019531 -0.421875 0.859375 -0.882812 0.859375 -1.5625 C 0.859375 -2.238281 1.015625 -2.703125 1.328125 -2.953125 C 1.648438 -3.203125 2.238281 -3.328125 3.09375 -3.328125 C 3.96875 -3.328125 4.554688 -3.179688 4.859375 -2.890625 C 5.171875 -2.609375 5.328125 -2.070312 5.328125 -1.28125 C 5.328125 0.21875 5.019531 1.285156 4.40625 1.921875 C 3.800781 2.566406 2.785156 2.890625 1.359375 2.890625 Z M 1.359375 2.890625 "/></g></g><g style="fill:#ff6600;fill-opacity:1;"><g transform="translate(396.653789, 175.982909)"><path style="stroke:none" d=""/></g></g><g style="fill:#ff6600;fill-opacity:1;"><g transform="translate(403.423253, 175.982909)"><path style="stroke:none" d="M -0.765625 -10.65625 L -0.765625 -12.890625 L 13.34375 -12.890625 L 13.34375 -10.65625 L 10.765625 -10.65625 L 10.765625 -6.90625 L 4 -6.90625 C 3.820312 -6.90625 3.664062 -6.867188 3.53125 -6.796875 C 3.40625 -6.722656 3.34375 -6.585938 3.34375 -6.390625 C 3.34375 -6.054688 3.554688 -5.890625 3.984375 -5.890625 L 6.640625 -5.890625 C 8.117188 -5.890625 9.175781 -5.671875 9.8125 -5.234375 C 10.457031 -4.796875 10.78125 -4.09375 10.78125 -3.125 L 10.78125 -2.078125 L 8.875 -2.078125 L 8.875 -2.21875 C 8.875 -2.582031 8.734375 -2.800781 8.453125 -2.875 C 8.179688 -2.945312 7.84375 -2.984375 7.4375 -2.984375 L 4.796875 -2.984375 C 4.421875 -2.984375 4.082031 -2.925781 3.78125 -2.8125 C 3.476562 -2.707031 3.328125 -2.472656 3.328125 -2.109375 C 3.328125 -1.804688 3.429688 -1.582031 3.640625 -1.4375 C 3.847656 -1.289062 4.203125 -1.191406 4.703125 -1.140625 C 5.210938 -1.097656 5.898438 -1.078125 6.765625 -1.078125 C 7.722656 -1.078125 8.640625 -1.128906 9.515625 -1.234375 C 10.398438 -1.335938 11.191406 -1.46875 11.890625 -1.625 L 11.890625 1.296875 C 11.171875 1.460938 10.382812 1.597656 9.53125 1.703125 C 8.6875 1.804688 7.71875 1.859375 6.625 1.859375 C 5.582031 1.859375 4.671875 1.753906 3.890625 1.546875 C 3.117188 1.347656 2.515625 0.984375 2.078125 0.453125 C 1.648438 -0.078125 1.4375 -0.816406 1.4375 -1.765625 C 1.4375 -2.515625 1.582031 -3.101562 1.875 -3.53125 C 2.164062 -3.96875 2.53125 -4.289062 2.96875 -4.5 C 2.582031 -4.675781 2.226562 -4.945312 1.90625 -5.3125 C 1.59375 -5.675781 1.4375 -6.1875 1.4375 -6.84375 C 1.4375 -7.53125 1.597656 -8.078125 1.921875 -8.484375 C 2.242188 -8.898438 2.679688 -9.191406 3.234375 -9.359375 C 3.796875 -9.535156 4.421875 -9.625 5.109375 -9.625 L 8.859375 -9.625 L 8.859375 -10.65625 Z M -0.765625 -10.65625 "/></g></g><g style="fill:#ff6600;fill-opacity:1;"><g transform="translate(417.421141, 175.982909)"><path style="stroke:none" d="M -0.765625 -10.65625 L -0.765625 -12.890625 L 11.359375 -12.890625 L 11.359375 -10.65625 L 8.796875 -10.65625 C 8.898438 -10.445312 8.976562 -10.207031 9.03125 -9.9375 C 9.09375 -9.675781 9.125 -9.378906 9.125 -9.046875 C 9.125 -7.722656 8.738281 -6.765625 7.96875 -6.171875 C 7.207031 -5.585938 6.179688 -5.296875 4.890625 -5.296875 C 4.535156 -5.296875 4.226562 -5.304688 3.96875 -5.328125 C 3.707031 -5.359375 3.441406 -5.394531 3.171875 -5.4375 L 3.171875 -4.875 C 3.171875 -4.320312 3.347656 -3.96875 3.703125 -3.8125 C 4.054688 -3.65625 4.703125 -3.578125 5.640625 -3.578125 C 6.273438 -3.578125 6.941406 -3.625 7.640625 -3.71875 C 8.335938 -3.820312 8.957031 -3.972656 9.5 -4.171875 L 9.5 -0.65625 C 9.03125 -0.488281 8.492188 -0.351562 7.890625 -0.25 C 7.285156 -0.144531 6.535156 -0.09375 5.640625 -0.09375 C 4.148438 -0.09375 3.046875 -0.382812 2.328125 -0.96875 C 1.609375 -1.5625 1.25 -2.539062 1.25 -3.90625 L 1.25 -8.828125 C 1.726562 -8.796875 2.117188 -8.769531 2.421875 -8.75 C 2.722656 -8.726562 3.003906 -8.710938 3.265625 -8.703125 C 3.523438 -8.703125 3.832031 -8.703125 4.1875 -8.703125 C 5.28125 -8.703125 6.050781 -8.78125 6.5 -8.9375 C 6.957031 -9.101562 7.1875 -9.398438 7.1875 -9.828125 C 7.1875 -10.378906 6.773438 -10.65625 5.953125 -10.65625 Z M -0.765625 -10.65625 "/></g></g><g style="fill:#ff6600;fill-opacity:1;"><g transform="translate(427.039855, 175.982909)"><path style="stroke:none" d="M -3.4375 -12.03125 L -3.4375 -13.140625 C -3.4375 -13.640625 -3.507812 -14.023438 -3.65625 -14.296875 C -3.800781 -14.578125 -4.078125 -14.773438 -4.484375 -14.890625 C -4.890625 -15.015625 -5.476562 -15.078125 -6.25 -15.078125 C -6.863281 -15.078125 -7.566406 -15.050781 -8.359375 -15 C -9.160156 -14.945312 -9.976562 -14.867188 -10.8125 -14.765625 L -10.8125 -17.640625 C -10.394531 -17.710938 -9.945312 -17.773438 -9.46875 -17.828125 C -9 -17.878906 -8.523438 -17.921875 -8.046875 -17.953125 C -7.566406 -17.984375 -7.140625 -18 -6.765625 -18 C -6.015625 -18 -5.320312 -17.953125 -4.6875 -17.859375 C -4.050781 -17.773438 -3.492188 -17.609375 -3.015625 -17.359375 C -2.546875 -17.117188 -2.179688 -16.769531 -1.921875 -16.3125 C -1.660156 -15.851562 -1.53125 -15.25 -1.53125 -14.5 L -1.53125 -12.03125 Z M -3.4375 -12.03125 "/></g></g><g style="fill:#ff6600;fill-opacity:1;"><g transform="translate(429.430242, 175.982909)"><path style="stroke:none" d="M 8.5625 0 L 8.5625 -1.25 L 4.859375 -1.25 C 3.660156 -1.25 2.703125 -1.613281 1.984375 -2.34375 C 1.273438 -3.070312 0.921875 -4.035156 0.921875 -5.234375 C 0.921875 -6.453125 1.273438 -7.421875 1.984375 -8.140625 C 2.703125 -8.867188 3.660156 -9.234375 4.859375 -9.234375 L 8.5625 -9.234375 L 8.5625 -10.65625 L -0.765625 -10.65625 L -0.765625 -12.890625 L 19.78125 -12.890625 L 19.78125 -10.65625 L 10.484375 -10.65625 L 10.484375 -9.234375 L 13.96875 -9.234375 C 15.289062 -9.234375 16.304688 -8.867188 17.015625 -8.140625 C 17.734375 -7.421875 18.09375 -6.453125 18.09375 -5.234375 C 18.09375 -3.890625 17.757812 -2.882812 17.09375 -2.21875 C 16.4375 -1.550781 15.425781 -1.21875 14.0625 -1.21875 C 13.632812 -1.21875 13.1875 -1.242188 12.71875 -1.296875 C 12.257812 -1.347656 11.769531 -1.429688 11.25 -1.546875 L 11.25 -4.609375 C 11.25 -4.609375 11.367188 -4.578125 11.609375 -4.515625 C 11.847656 -4.460938 12.175781 -4.40625 12.59375 -4.34375 C 13.007812 -4.289062 13.457031 -4.265625 13.9375 -4.265625 C 14.65625 -4.265625 15.207031 -4.351562 15.59375 -4.53125 C 15.988281 -4.707031 16.1875 -4.972656 16.1875 -5.328125 C 16.1875 -5.691406 16.046875 -5.921875 15.765625 -6.015625 C 15.492188 -6.109375 15.160156 -6.15625 14.765625 -6.15625 L 10.484375 -6.15625 L 10.484375 0 Z M 3.828125 -4.328125 L 8.5625 -4.328125 L 8.5625 -6.15625 L 3.828125 -6.15625 C 3.515625 -6.15625 3.269531 -6.078125 3.09375 -5.921875 C 2.914062 -5.765625 2.828125 -5.535156 2.828125 -5.234375 C 2.828125 -4.941406 2.914062 -4.71875 3.09375 -4.5625 C 3.269531 -4.40625 3.515625 -4.328125 3.828125 -4.328125 Z M 3.828125 -4.328125 "/></g></g><g style="fill:#ff6600;fill-opacity:1;"><g transform="translate(449.853404, 175.982909)"><path style="stroke:none" d=""/></g></g><g style="fill:#ff6600;fill-opacity:1;"><g transform="translate(456.622868, 175.982909)"><path style="stroke:none" d="M -0.765625 -10.65625 L -0.765625 -12.890625 L 16.328125 -12.890625 L 16.328125 -10.65625 L 14.03125 -10.65625 L 14.03125 0 L 12.125 0 L 12.125 -5.390625 L 3.328125 -5.390625 L 3.328125 -4.875 C 3.328125 -4.320312 3.5 -3.96875 3.84375 -3.8125 C 4.195312 -3.65625 4.847656 -3.578125 5.796875 -3.578125 C 6.429688 -3.578125 7.09375 -3.625 7.78125 -3.71875 C 8.476562 -3.820312 9.101562 -3.972656 9.65625 -4.171875 L 9.65625 -0.65625 C 9.1875 -0.488281 8.648438 -0.351562 8.046875 -0.25 C 7.441406 -0.144531 6.691406 -0.09375 5.796875 -0.09375 C 4.304688 -0.09375 3.195312 -0.382812 2.46875 -0.96875 C 1.75 -1.5625 1.390625 -2.539062 1.390625 -3.90625 L 1.390625 -8.890625 C 1.878906 -8.847656 2.269531 -8.816406 2.5625 -8.796875 C 2.863281 -8.785156 3.144531 -8.773438 3.40625 -8.765625 C 3.675781 -8.765625 3.988281 -8.765625 4.34375 -8.765625 C 5.4375 -8.765625 6.207031 -8.832031 6.65625 -8.96875 C 7.113281 -9.113281 7.34375 -9.398438 7.34375 -9.828125 C 7.34375 -10.378906 6.925781 -10.65625 6.09375 -10.65625 Z M 9.28125 -9.046875 C 9.28125 -8.609375 9.234375 -8.210938 9.140625 -7.859375 C 9.054688 -7.503906 8.929688 -7.191406 8.765625 -6.921875 L 12.125 -6.921875 L 12.125 -10.65625 L 8.953125 -10.65625 C 9.054688 -10.445312 9.132812 -10.207031 9.1875 -9.9375 C 9.25 -9.675781 9.28125 -9.378906 9.28125 -9.046875 Z M 9.28125 -9.046875 "/></g></g><g style="fill:#ff6600;fill-opacity:1;"><g transform="translate(472.188856, 175.982909)"><path style="stroke:none" d="M 1.53125 0 L 1.53125 -10.65625 L -0.765625 -10.65625 L -0.765625 -12.890625 L 5.734375 -12.890625 L 5.734375 -10.65625 L 3.4375 -10.65625 L 3.4375 0 Z M 1.53125 0 "/></g></g><g style="fill:#ff6600;fill-opacity:1;"><g transform="translate(478.575857, 175.982909)"><path style="stroke:none" d="M 7.96875 -4.859375 L 7.96875 -5.65625 L 3.6875 -5.65625 C 3.488281 -5.65625 3.320312 -5.59375 3.1875 -5.46875 C 3.0625 -5.351562 3 -5.1875 3 -4.96875 C 3 -4.769531 3.0625 -4.601562 3.1875 -4.46875 C 3.320312 -4.34375 3.488281 -4.28125 3.6875 -4.28125 L 7.40625 -4.28125 C 7.582031 -4.28125 7.71875 -4.332031 7.8125 -4.4375 C 7.914062 -4.550781 7.96875 -4.691406 7.96875 -4.859375 Z M 13.125 0 L 13.125 -5.65625 L 9.890625 -5.65625 L 9.890625 -5.09375 C 9.890625 -4.300781 9.722656 -3.597656 9.390625 -2.984375 C 9.066406 -2.367188 8.609375 -1.890625 8.015625 -1.546875 C 7.429688 -1.203125 6.742188 -1.03125 5.953125 -1.03125 L 5.03125 -1.03125 C 4.238281 -1.03125 3.546875 -1.191406 2.953125 -1.515625 C 2.359375 -1.847656 1.898438 -2.304688 1.578125 -2.890625 C 1.253906 -3.484375 1.09375 -4.175781 1.09375 -4.96875 C 1.09375 -5.695312 1.222656 -6.351562 1.484375 -6.9375 C 1.742188 -7.53125 2.140625 -8 2.671875 -8.34375 C 3.203125 -8.6875 3.859375 -8.859375 4.640625 -8.859375 L 7.96875 -8.859375 L 7.96875 -10.65625 L -0.765625 -10.65625 L -0.765625 -12.890625 L 17.328125 -12.890625 L 17.328125 -10.65625 L 15.03125 -10.65625 L 15.03125 0 Z M 13.125 -8.859375 L 13.125 -10.65625 L 9.890625 -10.65625 L 9.890625 -8.859375 Z M 13.125 -8.859375 "/></g></g><g style="fill:#ff6600;fill-opacity:1;"><g transform="translate(495.136239, 175.982909)"><path style="stroke:none" d="M 1.53125 0 L 1.53125 -10.65625 L -0.765625 -10.65625 L -0.765625 -12.890625 L 5.734375 -12.890625 L 5.734375 -10.65625 L 3.4375 -10.65625 L 3.4375 0 Z M 1.53125 0 "/></g></g><g style="fill:#ff6600;fill-opacity:1;"><g transform="translate(501.52324, 175.982909)"><path style="stroke:none" d="M 3.640625 -4.5 L 6.15625 -4.5 C 6.476562 -4.5 6.71875 -4.5 6.875 -4.5 C 7.03125 -4.507812 7.195312 -4.539062 7.375 -4.59375 C 7.53125 -4.625 7.644531 -4.703125 7.71875 -4.828125 C 7.800781 -4.953125 7.84375 -5.082031 7.84375 -5.21875 C 7.84375 -5.625 7.570312 -5.828125 7.03125 -5.828125 L 3.640625 -5.828125 C 3.441406 -5.828125 3.285156 -5.765625 3.171875 -5.640625 C 3.066406 -5.523438 3.015625 -5.375 3.015625 -5.1875 C 3.015625 -4.988281 3.066406 -4.820312 3.171875 -4.6875 C 3.285156 -4.5625 3.441406 -4.5 3.640625 -4.5 Z M 12.375 0 L 12.375 -5.828125 L 9.46875 -5.828125 C 9.65625 -5.523438 9.75 -5.144531 9.75 -4.6875 C 9.75 -3.59375 9.421875 -2.757812 8.765625 -2.1875 C 8.117188 -1.625 7.238281 -1.34375 6.125 -1.34375 L 5.03125 -1.34375 C 4.289062 -1.34375 3.625 -1.484375 3.03125 -1.765625 C 2.4375 -2.054688 1.96875 -2.488281 1.625 -3.0625 C 1.28125 -3.644531 1.109375 -4.367188 1.109375 -5.234375 C 1.109375 -5.992188 1.269531 -6.648438 1.59375 -7.203125 C 1.914062 -7.765625 2.375 -8.203125 2.96875 -8.515625 C 3.5625 -8.828125 4.253906 -8.984375 5.046875 -8.984375 L 12.375 -8.984375 L 12.375 -10.65625 L -0.765625 -10.65625 L -0.765625 -12.890625 L 16.578125 -12.890625 L 16.578125 -10.65625 L 14.28125 -10.65625 L 14.28125 0 Z M 12.375 0 "/></g></g></g></svg>